<?xml version="1.0" encoding="utf-8"?>
<!-- Generator: Adobe Illustrator 18.0.0, SVG Export Plug-In . SVG Version: 6.00 Build 0)  -->
<!DOCTYPE svg PUBLIC "-//W3C//DTD SVG 1.1//EN" "http://www.w3.org/Graphics/SVG/1.1/DTD/svg11.dtd">
<svg version="1.1" xmlns="http://www.w3.org/2000/svg" xmlns:xlink="http://www.w3.org/1999/xlink" x="0px" y="0px"
	 viewBox="0 0 512 512" enable-background="new 0 0 512 512" xml:space="preserve">
<g id="firefox">
</g>
<g id="Palet_Color">
</g>
<g id="brave">
	<g>
		<path fill="#E53946" d="M478.1,157.1c-3.7-11.9-8.1-23.6-12-35.4c-0.7-2.1-0.5-4.8,0.2-6.9c2.8-7.6,5.9-15.2,9.1-22.7
			c1.2-2.8,1-4.7-1.2-6.9c-10.3-10.5-20.6-21.1-30.7-31.8c-5.6-5.9-12.5-9.2-20.3-10.9c-11.8-2.6-23.5-1.6-35.1,0.8
			c-3.8,0.8-6.7,0.3-8.9-3.2c-1.3-2-3.4-3.5-4.8-5.5c-1.9-2.8-4.2-3.5-7.5-3.5c-71,0.1-142,0.3-213-0.1c-9.2,0-16.1,1.8-21,9.6
			c-2,3.2-5,3.3-8.6,2.9c-8.9-1.1-17.9-2.1-26.9-1.9c-9.7,0.2-19.1,2.9-26.2,9.9c-11.2,11-22.1,22.5-32.8,34
			c-1.2,1.3-1.7,4.5-1.1,6.3c1.9,5.7,4.2,11.4,6.9,16.8c3.2,6.5,3.1,12.8,0.5,19.5c-4,10.5-7.6,21.2-11.3,31.9
			c-0.6,1.7-1.1,3.8-0.6,5.5c4.5,17.8,9.2,35.6,13.9,53.3c6.6,24.8,13.3,49.5,19.8,74.3c7.8,29.5,15.4,59,23.3,88.4
			c6.2,23.3,19.2,42,39.1,55.8c19.8,13.7,39.6,27.4,59.5,40.9c2.1,1.4,5,2.3,7.6,2.4c20,0.2,39.9,0.1,59.9,0.1v0.1
			c20,0,40.3,0.1,60.4-0.1c2.6,0,5.5-0.9,7.6-2.3c17.7-11.9,35.2-24,52.8-36.1c17.3-11.8,32.9-25.3,40.5-45.5
			c4.4-11.7,8.1-23.6,11.3-35.6c8.3-31.2,16.1-62.5,24.3-93.7c8.6-32.7,17.5-65.3,25.9-98C479.8,165.7,479.3,161,478.1,157.1z
			 M324.1,360.6c-11.2,8.8-22.5,17.4-33.6,26.2c-8.3,6.5-16.3,13.4-24.6,20c-2.9,2.3-6.3,4.1-9.5,6.1c-2.9-1.5-5.5-2.4-7.4-4
			c-17.8-14-35.6-28.1-53.3-42.2c-2.7-2.2-5.6-4.1-8.3-6.3c-4.4-3.6-4.4-7.8,0.5-10.5c20.4-11,40.8-22,63-29.3
			c6.3-2.1,11.8,0,17.1,2.5c18.9,8.7,37.5,17.8,56.1,27C329.3,352.7,329.2,356.6,324.1,360.6z M418.4,188.4
			c-17.7,18-34.9,36.5-52.3,54.9c-6.2,6.5-5.8,13.9-2.4,21.7c4.2,9.7,8.5,19.6,6.3,30.6c-3.2,15.7-12.9,26.7-27,33.5
			c-3.5,1.7-8.8,1.6-12.5,0.3c-24.6-8.9-46.5-22.3-63.9-42.3c-6.8-7.8-6.8-12.7,1.5-18.7c12.1-8.7,24.8-16.5,37.2-24.7
			c3.3-2.2,6.5-4.5,9.7-7c5.8-4.5,6.7-7.7,3.6-14.4c-2.7-5.8-5.9-11.3-8.8-17c-3.7-7.3-7.8-14.3-10.8-21.9
			c-3.8-9.6-1.8-16.4,7.3-21.1c11.2-5.8,23.2-10,34.9-14.7c11.3-4.5,22.8-8.7,34.2-13.1c0-0.5-0.1-0.9-0.1-1.4
			c-2.1-0.5-4.1-1.4-6.2-1.6c-12.6-1-25.2-2.5-37.9-2.5c-16.5-0.1-31.9,6-47.2,11.5c-4.2,1.5-5.2,5.4-4.5,9.5
			c1.5,8.7,3.3,17.4,4.8,26.1c2.7,14.8,5.3,29.7,7.9,44.6c0.3,1.9,0.2,3.8,0.4,5.7c0.4,5-2,7.6-6.6,9.2c-19.7,6.8-39.4,6.9-59.2,0.6
			c-6.6-2.1-8.6-4.4-7.6-11.5c2.5-15.9,5.3-31.8,8.1-47.7c1.6-8.9,3.6-17.7,4.8-26.6c0.9-6.4-1-8.8-7-11c-22.3-8-44.9-13.1-68.8-8.8
			c-6.2,1.1-12.6,1.1-18.9,1.7c0,0.7,0,1.4,0,2.2c17,6.4,34.1,12.6,51,19.2c6.9,2.7,13.6,6,19.8,10c6.8,4.3,8.7,10.5,5.6,18.1
			c-3.3,8.3-7.6,16.3-11.6,24.3c-2.8,5.6-6,10.9-8.5,16.6c-2.9,6.5-2.1,9.9,3.8,13.9c10.5,7.3,21.4,14,32.1,21.2
			c5.6,3.8,11.1,7.6,16.2,12c6,5.2,6.3,9,1.3,15.2c-13.2,16.3-29.5,28.7-48.5,37.4c-4.4,2-8.8,4-13.3,5.9c-6.9,3-13.7,3.3-20.4-0.9
			c-13-8.2-27-25.2-23-43.7c1.4-6.5,3.8-12.9,6.3-19.2c4-9.8,3-15.4-4.4-23.1c-18.1-19-36.2-38.2-54.2-57.4
			c-8.5-9.2-10.5-19.3-3.9-30c9.9-16.2,20.9-31.8,31.9-47.3c6.4-9,13.9-17.3,20.6-26.2c2.4-3.1,4.7-3.9,8.4-3.2
			c11.4,2.3,23,3.6,34.2,6.5c15.3,3.9,29.4,0.9,43.7-4.5c12.5-4.7,25.2-9.7,38.9-6.8c10.5,2.3,20.9,5.2,30.8,9.1
			c12.6,4.9,24.9,4.9,37.8,2.2c11.2-2.4,22.5-4.1,33.7-6.3c3.3-0.6,5.4,0.1,7.5,2.9C390,103.5,407,126,423.3,149
			C434.6,165.1,429.7,177,418.4,188.4z"/>
		<path fill="#E53946" d="M478.1,157.1c-3.7-11.9-8.1-23.6-12-35.4c-0.7-2.1-0.5-4.8,0.2-6.9c2.8-7.6,5.9-15.2,9.1-22.7
			c1.2-2.8,1-4.7-1.2-6.9c-10.3-10.5-20.6-21.1-30.7-31.8c-5.6-5.9-12.5-9.2-20.3-10.9c-11.8-2.6-23.5-1.6-35.1,0.8
			c-3.8,0.8-6.7,0.3-8.9-3.2c-1.3-2-3.4-3.5-4.8-5.5c-1.9-2.8-4.2-3.5-7.5-3.5c-71,0.1-142,0.3-213-0.1c-9.2,0-16.1,1.8-21,9.6
			c-2,3.2-5,3.3-8.6,2.9c-8.9-1.1-17.9-2.1-26.9-1.9c-9.7,0.2-19.1,2.9-26.2,9.9c-11.2,11-22.1,22.5-32.8,34
			c-1.2,1.3-1.7,4.5-1.1,6.3c1.9,5.7,4.2,11.4,6.9,16.8c3.2,6.5,3.1,12.8,0.5,19.5c-4,10.5-7.6,21.2-11.3,31.9
			c-0.6,1.7-1.1,3.8-0.6,5.5c4.5,17.8,9.2,35.6,13.9,53.3c6.6,24.8,13.3,49.5,19.8,74.3c7.8,29.5,15.4,59,23.3,88.4
			c6.2,23.3,19.2,42,39.1,55.8c19.8,13.7,39.6,27.4,59.5,40.9c2.1,1.4,5,2.3,7.6,2.4c20,0.2,39.9,0.1,59.9,0.1v0.1
			c20,0,40.3,0.1,60.4-0.1c2.6,0,5.5-0.9,7.6-2.3c17.7-11.9,35.2-24,52.8-36.1c17.3-11.8,32.9-25.3,40.5-45.5
			c4.4-11.7,8.1-23.6,11.3-35.6c8.3-31.2,16.1-62.5,24.3-93.7c8.6-32.7,17.5-65.3,25.9-98C479.8,165.7,479.3,161,478.1,157.1z
			 M324.1,360.6c-11.2,8.8-22.5,17.4-33.6,26.2c-8.3,6.5-16.3,13.4-24.6,20c-2.9,2.3-6.3,4.1-9.5,6.1c-2.9-1.5-5.5-2.4-7.4-4
			c-17.8-14-35.6-28.1-53.3-42.2c-2.7-2.2-5.6-4.1-8.3-6.3c-4.4-3.6-4.4-7.8,0.5-10.5c20.4-11,40.8-22,63-29.3
			c6.3-2.1,11.8,0,17.1,2.5c18.9,8.7,37.5,17.8,56.1,27C329.3,352.7,329.2,356.6,324.1,360.6z M418.4,188.4
			c-17.7,18-34.9,36.5-52.3,54.9c-6.2,6.5-5.8,13.9-2.4,21.7c4.2,9.7,8.5,19.6,6.3,30.6c-3.2,15.7-12.9,26.7-27,33.5
			c-3.5,1.7-8.8,1.6-12.5,0.3c-24.6-8.9-46.5-22.3-63.9-42.3c-6.8-7.8-6.8-12.7,1.5-18.7c12.1-8.7,24.8-16.5,37.2-24.7
			c3.3-2.2,6.5-4.5,9.7-7c5.8-4.5,6.7-7.7,3.6-14.4c-2.7-5.8-5.9-11.3-8.8-17c-3.7-7.3-7.8-14.3-10.8-21.9
			c-3.8-9.6-1.8-16.4,7.3-21.1c11.2-5.8,23.2-10,34.9-14.7c11.3-4.5,22.8-8.7,34.2-13.1c0-0.5-0.1-0.9-0.1-1.4
			c-2.1-0.5-4.1-1.4-6.2-1.6c-12.6-1-25.2-2.5-37.9-2.5c-16.5-0.1-31.9,6-47.2,11.5c-4.2,1.5-5.2,5.4-4.5,9.5
			c1.5,8.7,3.3,17.4,4.8,26.1c2.7,14.8,5.3,29.7,7.9,44.6c0.3,1.9,0.2,3.8,0.4,5.7c0.4,5-2,7.6-6.6,9.2c-19.7,6.8-39.4,6.9-59.2,0.6
			c-6.6-2.1-8.6-4.4-7.6-11.5c2.5-15.9,5.3-31.8,8.1-47.7c1.6-8.9,3.6-17.7,4.8-26.6c0.9-6.4-1-8.8-7-11c-22.3-8-44.9-13.1-68.8-8.8
			c-6.2,1.1-12.6,1.1-18.9,1.7c0,0.7,0,1.4,0,2.2c17,6.4,34.1,12.6,51,19.2c6.9,2.7,13.6,6,19.8,10c6.8,4.3,8.7,10.5,5.6,18.1
			c-3.3,8.3-7.6,16.3-11.6,24.3c-2.8,5.6-6,10.9-8.5,16.6c-2.9,6.5-2.1,9.9,3.8,13.9c10.5,7.3,21.4,14,32.1,21.2
			c5.6,3.8,11.1,7.6,16.2,12c6,5.2,6.3,9,1.3,15.2c-13.2,16.3-29.5,28.7-48.5,37.4c-4.4,2-8.8,4-13.3,5.9c-6.9,3-13.7,3.3-20.4-0.9
			c-13-8.2-27-25.2-23-43.7c1.4-6.5,3.8-12.9,6.3-19.2c4-9.8,3-15.4-4.4-23.1c-18.1-19-36.2-38.2-54.2-57.4
			c-8.5-9.2-10.5-19.3-3.9-30c9.9-16.2,20.9-31.8,31.9-47.3c6.4-9,13.9-17.3,20.6-26.2c2.4-3.1,4.7-3.9,8.4-3.2
			c11.4,2.3,23,3.6,34.2,6.5c15.3,3.9,29.4,0.9,43.7-4.5c12.5-4.7,25.2-9.7,38.9-6.8c10.5,2.3,20.9,5.2,30.8,9.1
			c12.6,4.9,24.9,4.9,37.8,2.2c11.2-2.4,22.5-4.1,33.7-6.3c3.3-0.6,5.4,0.1,7.5,2.9C390,103.5,407,126,423.3,149
			C434.6,165.1,429.7,177,418.4,188.4z"/>
		<path fill="#E53946" d="M324.1,360.6c-11.2,8.8-22.5,17.4-33.6,26.2c-8.3,6.5-16.3,13.4-24.6,20c-2.9,2.3-6.3,4.1-9.5,6.1
			c-2.9-1.5-5.5-2.4-7.4-4c-17.8-14-35.6-28.1-53.3-42.2c-2.7-2.2-5.6-4.1-8.3-6.3c-4.4-3.6-4.4-7.8,0.5-10.5
			c20.4-11,40.8-22,63-29.3c6.3-2.1,11.8,0,17.1,2.5c18.9,8.7,37.5,17.8,56.1,27C329.3,352.7,329.2,356.6,324.1,360.6z"/>
		<path fill="#E53946" d="M366.2,243.4c-6.2,6.5-5.8,13.9-2.4,21.7c4.2,9.7,8.5,19.6,6.3,30.6c-3.2,15.7-12.9,26.7-27,33.5
			c-3.5,1.7-8.8,1.6-12.5,0.3c-24.6-8.9-46.5-22.3-63.9-42.3c-6.8-7.8-6.8-12.7,1.5-18.7c12.1-8.7,24.8-16.5,37.2-24.7
			c3.3-2.2,6.5-4.5,9.7-7c5.8-4.5,6.7-7.7,3.6-14.4c-2.7-5.8-5.9-11.3-8.8-17c-3.7-7.3-7.8-14.3-10.8-21.9
			c-3.8-9.6-1.8-16.4,7.3-21.1c11.2-5.8,23.2-10,34.9-14.7c11.3-4.5,22.8-8.7,34.2-13.1c0-0.5-0.1-0.9-0.1-1.4
			c-2.1-0.5-4.1-1.4-6.2-1.6c-12.6-1-25.2-2.5-37.9-2.5c-16.5-0.1-31.9,6-47.2,11.5c-4.2,1.5-5.2,5.4-4.5,9.5
			c1.5,8.7,3.3,17.4,4.8,26.1c2.7,14.8,5.3,29.7,7.9,44.6c0.3,1.9,0.2,3.8,0.4,5.7c0.4,5-2,7.6-6.6,9.2c-19.7,6.8-39.4,6.9-59.2,0.6
			c-6.6-2.1-8.6-4.4-7.6-11.5c2.5-15.9,5.3-31.8,8.1-47.7c1.6-8.9,3.6-17.7,4.8-26.6c0.9-6.4-1-8.8-7-11c-22.3-8-44.9-13.1-68.8-8.8
			c-6.2,1.1-12.6,1.1-18.9,1.7c0,0.7,0,1.4,0,2.2c17,6.4,34.1,12.6,51,19.2c6.9,2.7,13.6,6,19.8,10c6.8,4.3,8.7,10.5,5.6,18.1
			c-3.3,8.3-7.6,16.3-11.6,24.3c-2.8,5.6-6,10.9-8.5,16.6c-2.9,6.5-2.1,9.9,3.8,13.9c10.5,7.3,21.4,14,32.1,21.2
			c5.6,3.8,11.1,7.6,16.2,12c6,5.2,6.3,9,1.3,15.2c-13.2,16.3-29.5,28.7-48.5,37.4c-4.4,2-8.8,4-13.3,5.9c-6.9,3-13.7,3.3-20.4-0.9
			c-13-8.2-27-25.2-23-43.7c1.4-6.5,3.8-12.9,6.3-19.2c4-9.8,3-15.4-4.4-23.1c-18.1-19-36.2-38.2-54.2-57.4
			c-8.5-9.2-10.5-19.3-3.9-30c9.9-16.2,20.9-31.8,31.9-47.3c6.4-9,13.9-17.3,20.6-26.2c2.4-3.1,4.7-3.9,8.4-3.2
			c11.4,2.3,23,3.6,34.2,6.5c15.3,3.9,29.4,0.9,43.7-4.5c12.5-4.7,25.2-9.7,38.9-6.8c10.5,2.3,20.9,5.2,30.8,9.1
			c12.6,4.9,24.9,4.9,37.8,2.2c11.2-2.4,22.5-4.1,33.7-6.3c3.3-0.6,5.4,0.1,7.5,2.9C390,103.5,407,126,423.3,149
			c11.4,16,6.4,27.9-4.8,39.4C400.7,206.5,383.5,225,366.2,243.4z"/>
	</g>
	<g>
		<path fill="#F3ECE5" d="M478.1,157.1c-3.7-11.9-8.1-23.6-12-35.4c-0.7-2.1-0.5-4.8,0.2-6.9c2.8-7.6,5.9-15.2,9.1-22.7
			c1.2-2.8,1-4.7-1.2-6.9c-10.3-10.5-20.6-21.1-30.7-31.8c-5.6-5.9-12.5-9.2-20.3-10.9c-11.8-2.6-23.5-1.6-35.1,0.8
			c-3.8,0.8-6.7,0.3-8.9-3.2c-1.3-2-3.4-3.5-4.8-5.5c-1.9-2.8-4.2-3.5-7.5-3.5c-71,0.1-142,0.3-213-0.1c-9.2,0-16.1,1.8-21,9.6
			c-2,3.2-5,3.3-8.6,2.9c-8.9-1.1-17.9-2.1-26.9-1.9c-9.7,0.2-19.1,2.9-26.2,9.9c-11.2,11-22.1,22.5-32.8,34
			c-1.2,1.3-1.7,4.5-1.1,6.3c1.9,5.7,4.2,11.4,6.9,16.8c3.2,6.5,3.1,12.8,0.5,19.5c-4,10.5-7.6,21.2-11.3,31.9
			c-0.6,1.7-1.1,3.8-0.6,5.5c4.5,17.8,9.2,35.6,13.9,53.3c6.6,24.8,13.3,49.5,19.8,74.3c7.8,29.5,15.4,59,23.3,88.4
			c6.2,23.3,19.2,42,39.1,55.8c19.8,13.7,39.6,27.4,59.5,40.9c2.1,1.4,5,2.3,7.6,2.4c20,0.2,39.9,0.1,59.9,0.1v0.1
			c20,0,40.3,0.1,60.4-0.1c2.6,0,5.5-0.9,7.6-2.3c17.7-11.9,35.2-24,52.8-36.1c17.3-11.8,32.9-25.3,40.5-45.5
			c4.4-11.7,8.1-23.6,11.3-35.6c8.3-31.2,16.1-62.5,24.3-93.7c8.6-32.7,17.5-65.3,25.9-98C479.8,165.7,479.3,161,478.1,157.1z
			 M324.1,360.6c-11.2,8.8-22.5,17.4-33.6,26.2c-8.3,6.5-16.3,13.4-24.6,20c-2.9,2.3-6.3,4.1-9.5,6.1c-2.9-1.5-5.5-2.4-7.4-4
			c-17.8-14-35.6-28.1-53.3-42.2c-2.7-2.2-5.6-4.1-8.3-6.3c-4.4-3.6-4.4-7.8,0.5-10.5c20.4-11,40.8-22,63-29.3
			c6.3-2.1,11.8,0,17.1,2.5c18.9,8.7,37.5,17.8,56.1,27C329.3,352.7,329.2,356.6,324.1,360.6z M418.4,188.4
			c-17.7,18-34.9,36.5-52.3,54.9c-6.2,6.5-5.8,13.9-2.4,21.7c4.2,9.7,8.5,19.6,6.3,30.6c-3.2,15.7-12.9,26.7-27,33.5
			c-3.5,1.7-8.8,1.6-12.5,0.3c-24.6-8.9-46.5-22.3-63.9-42.3c-6.8-7.8-6.8-12.7,1.5-18.7c12.1-8.7,24.8-16.5,37.2-24.7
			c3.3-2.2,6.5-4.5,9.7-7c5.8-4.5,6.7-7.7,3.6-14.4c-2.7-5.8-5.9-11.3-8.8-17c-3.7-7.3-7.8-14.3-10.8-21.9
			c-3.8-9.6-1.8-16.4,7.3-21.1c11.2-5.8,23.2-10,34.9-14.7c11.3-4.5,22.8-8.7,34.2-13.1c0-0.5-0.1-0.9-0.1-1.4
			c-2.1-0.5-4.1-1.4-6.2-1.6c-12.6-1-25.2-2.5-37.9-2.5c-16.5-0.1-31.9,6-47.2,11.5c-4.2,1.5-5.2,5.4-4.5,9.5
			c1.5,8.7,3.3,17.4,4.8,26.1c2.7,14.8,5.3,29.7,7.9,44.6c0.3,1.9,0.2,3.8,0.4,5.7c0.4,5-2,7.6-6.6,9.2c-19.7,6.8-39.4,6.9-59.2,0.6
			c-6.6-2.1-8.6-4.4-7.6-11.5c2.5-15.9,5.3-31.8,8.1-47.7c1.6-8.9,3.6-17.7,4.8-26.6c0.9-6.4-1-8.8-7-11c-22.3-8-44.9-13.1-68.8-8.8
			c-6.2,1.1-12.6,1.1-18.9,1.7c0,0.7,0,1.4,0,2.2c17,6.4,34.1,12.6,51,19.2c6.9,2.7,13.6,6,19.8,10c6.8,4.3,8.7,10.5,5.6,18.1
			c-3.3,8.3-7.6,16.3-11.6,24.3c-2.8,5.6-6,10.9-8.5,16.6c-2.9,6.5-2.1,9.9,3.8,13.9c10.5,7.3,21.4,14,32.1,21.2
			c5.6,3.8,11.1,7.6,16.2,12c6,5.2,6.3,9,1.3,15.2c-13.2,16.3-29.5,28.7-48.5,37.4c-4.4,2-8.8,4-13.3,5.9c-6.9,3-13.7,3.3-20.4-0.9
			c-13-8.2-27-25.2-23-43.7c1.4-6.5,3.8-12.9,6.3-19.2c4-9.8,3-15.4-4.4-23.1c-18.1-19-36.2-38.2-54.2-57.4
			c-8.5-9.2-10.5-19.3-3.9-30c9.9-16.2,20.9-31.8,31.9-47.3c6.4-9,13.9-17.3,20.6-26.2c2.4-3.1,4.7-3.9,8.4-3.2
			c11.4,2.3,23,3.6,34.2,6.5c15.3,3.9,29.4,0.9,43.7-4.5c12.5-4.7,25.2-9.7,38.9-6.8c10.5,2.3,20.9,5.2,30.8,9.1
			c12.6,4.9,24.9,4.9,37.8,2.2c11.2-2.4,22.5-4.1,33.7-6.3c3.3-0.6,5.4,0.1,7.5,2.9C390,103.5,407,126,423.3,149
			C434.6,165.1,429.7,177,418.4,188.4z"/>
		<path fill="#E53946" d="M478.1,157.1c-3.7-11.9-8.1-23.6-12-35.4c-0.7-2.1-0.5-4.8,0.2-6.9c2.8-7.6,5.9-15.2,9.1-22.7
			c1.2-2.8,1-4.7-1.2-6.9c-10.3-10.5-20.6-21.1-30.7-31.8c-5.6-5.9-12.5-9.2-20.3-10.9c-11.8-2.6-23.5-1.6-35.1,0.8
			c-3.8,0.8-6.7,0.3-8.9-3.2c-1.3-2-3.4-3.5-4.8-5.5c-1.9-2.8-4.2-3.5-7.5-3.5c-71,0.1-142,0.3-213-0.1c-9.2,0-16.1,1.8-21,9.6
			c-2,3.2-5,3.3-8.6,2.9c-8.9-1.1-17.9-2.1-26.9-1.9c-9.7,0.2-19.1,2.9-26.2,9.9c-11.2,11-22.1,22.5-32.8,34
			c-1.2,1.3-1.7,4.5-1.1,6.3c1.9,5.7,4.2,11.4,6.9,16.8c3.2,6.5,3.1,12.8,0.5,19.5c-4,10.5-7.6,21.2-11.3,31.9
			c-0.6,1.7-1.1,3.8-0.6,5.5c4.5,17.8,9.2,35.6,13.9,53.3c6.6,24.8,13.3,49.5,19.8,74.3c7.8,29.5,15.4,59,23.3,88.4
			c6.2,23.3,19.2,42,39.1,55.8c19.8,13.7,39.6,27.4,59.5,40.9c2.1,1.4,5,2.3,7.6,2.4c20,0.2,39.9,0.1,59.9,0.1v0.1
			c20,0,40.3,0.1,60.4-0.1c2.6,0,5.5-0.9,7.6-2.3c17.7-11.9,35.2-24,52.8-36.1c17.3-11.8,32.9-25.3,40.5-45.5
			c4.4-11.7,8.1-23.6,11.3-35.6c8.3-31.2,16.1-62.5,24.3-93.7c8.6-32.7,17.5-65.3,25.9-98C479.8,165.7,479.3,161,478.1,157.1z
			 M324.1,360.6c-11.2,8.8-22.5,17.4-33.6,26.2c-8.3,6.5-16.3,13.4-24.6,20c-2.9,2.3-6.3,4.1-9.5,6.1c-2.9-1.5-5.5-2.4-7.4-4
			c-17.8-14-35.6-28.1-53.3-42.2c-2.7-2.2-5.6-4.1-8.3-6.3c-4.4-3.6-4.4-7.8,0.5-10.5c20.4-11,40.8-22,63-29.3
			c6.3-2.1,11.8,0,17.1,2.5c18.9,8.7,37.5,17.8,56.1,27C329.3,352.7,329.2,356.6,324.1,360.6z M418.4,188.4
			c-17.7,18-34.9,36.5-52.3,54.9c-6.2,6.5-5.8,13.9-2.4,21.7c4.2,9.7,8.5,19.6,6.3,30.6c-3.2,15.7-12.9,26.7-27,33.5
			c-3.5,1.7-8.8,1.6-12.5,0.3c-24.6-8.9-46.5-22.3-63.9-42.3c-6.8-7.8-6.8-12.7,1.5-18.7c12.1-8.7,24.8-16.5,37.2-24.7
			c3.3-2.2,6.5-4.5,9.7-7c5.8-4.5,6.7-7.7,3.6-14.4c-2.7-5.8-5.9-11.3-8.8-17c-3.7-7.3-7.8-14.3-10.8-21.9
			c-3.8-9.6-1.8-16.4,7.3-21.1c11.2-5.8,23.2-10,34.9-14.7c11.3-4.5,22.8-8.7,34.2-13.1c0-0.5-0.1-0.9-0.1-1.4
			c-2.1-0.5-4.1-1.4-6.2-1.6c-12.6-1-25.2-2.5-37.9-2.5c-16.5-0.1-31.9,6-47.2,11.5c-4.2,1.5-5.2,5.4-4.5,9.5
			c1.5,8.7,3.3,17.4,4.8,26.1c2.7,14.8,5.3,29.7,7.9,44.6c0.3,1.9,0.2,3.8,0.4,5.7c0.4,5-2,7.6-6.6,9.2c-19.7,6.8-39.4,6.9-59.2,0.6
			c-6.6-2.1-8.6-4.4-7.6-11.5c2.5-15.9,5.3-31.8,8.1-47.7c1.6-8.9,3.6-17.7,4.8-26.6c0.9-6.4-1-8.8-7-11c-22.3-8-44.9-13.1-68.8-8.8
			c-6.2,1.1-12.6,1.1-18.9,1.7c0,0.7,0,1.4,0,2.2c17,6.4,34.1,12.6,51,19.2c6.9,2.7,13.6,6,19.8,10c6.8,4.3,8.7,10.5,5.6,18.1
			c-3.3,8.3-7.6,16.3-11.6,24.3c-2.8,5.6-6,10.9-8.5,16.6c-2.9,6.5-2.1,9.9,3.8,13.9c10.5,7.3,21.4,14,32.1,21.2
			c5.6,3.8,11.1,7.6,16.2,12c6,5.2,6.3,9,1.3,15.2c-13.2,16.3-29.5,28.7-48.5,37.4c-4.4,2-8.8,4-13.3,5.9c-6.9,3-13.7,3.3-20.4-0.9
			c-13-8.2-27-25.2-23-43.7c1.4-6.5,3.8-12.9,6.3-19.2c4-9.8,3-15.4-4.4-23.1c-18.1-19-36.2-38.2-54.2-57.4
			c-8.5-9.2-10.5-19.3-3.9-30c9.9-16.2,20.9-31.8,31.9-47.3c6.4-9,13.9-17.3,20.6-26.2c2.4-3.1,4.7-3.9,8.4-3.2
			c11.4,2.3,23,3.6,34.2,6.5c15.3,3.9,29.4,0.9,43.7-4.5c12.5-4.7,25.2-9.7,38.9-6.8c10.5,2.3,20.9,5.2,30.8,9.1
			c12.6,4.9,24.9,4.9,37.8,2.2c11.2-2.4,22.5-4.1,33.7-6.3c3.3-0.6,5.4,0.1,7.5,2.9C390,103.5,407,126,423.3,149
			C434.6,165.1,429.7,177,418.4,188.4z"/>
		<path fill="#F3ECE5" d="M324.1,360.6c-11.2,8.8-22.5,17.4-33.6,26.2c-8.3,6.5-16.3,13.4-24.6,20c-2.9,2.3-6.3,4.1-9.5,6.1
			c-2.9-1.5-5.5-2.4-7.4-4c-17.8-14-35.6-28.1-53.3-42.2c-2.7-2.2-5.6-4.1-8.3-6.3c-4.4-3.6-4.4-7.8,0.5-10.5
			c20.4-11,40.8-22,63-29.3c6.3-2.1,11.8,0,17.1,2.5c18.9,8.7,37.5,17.8,56.1,27C329.3,352.7,329.2,356.6,324.1,360.6z"/>
		<path fill="#F3ECE5" d="M366.2,243.4c-6.2,6.5-5.8,13.9-2.4,21.7c4.2,9.7,8.5,19.6,6.3,30.6c-3.2,15.7-12.9,26.7-27,33.5
			c-3.5,1.7-8.8,1.6-12.5,0.3c-24.6-8.9-46.5-22.3-63.9-42.3c-6.8-7.8-6.8-12.7,1.5-18.7c12.1-8.7,24.8-16.5,37.2-24.7
			c3.3-2.2,6.5-4.5,9.7-7c5.8-4.5,6.7-7.7,3.6-14.4c-2.7-5.8-5.9-11.3-8.8-17c-3.7-7.3-7.8-14.3-10.8-21.9
			c-3.8-9.6-1.8-16.4,7.3-21.1c11.2-5.8,23.2-10,34.9-14.7c11.3-4.5,22.8-8.7,34.2-13.1c0-0.5-0.1-0.9-0.1-1.4
			c-2.1-0.5-4.1-1.4-6.2-1.6c-12.6-1-25.2-2.5-37.9-2.5c-16.5-0.1-31.9,6-47.2,11.5c-4.2,1.5-5.2,5.4-4.5,9.5
			c1.5,8.7,3.3,17.4,4.8,26.1c2.7,14.8,5.3,29.7,7.9,44.6c0.3,1.9,0.2,3.8,0.4,5.7c0.4,5-2,7.6-6.6,9.2c-19.7,6.8-39.4,6.9-59.2,0.6
			c-6.6-2.1-8.6-4.4-7.6-11.5c2.5-15.9,5.3-31.8,8.1-47.7c1.6-8.9,3.6-17.7,4.8-26.6c0.9-6.4-1-8.8-7-11c-22.3-8-44.9-13.1-68.8-8.8
			c-6.2,1.1-12.6,1.1-18.9,1.7c0,0.7,0,1.4,0,2.2c17,6.4,34.1,12.6,51,19.2c6.9,2.7,13.6,6,19.8,10c6.8,4.3,8.7,10.5,5.6,18.1
			c-3.3,8.3-7.6,16.3-11.6,24.3c-2.8,5.6-6,10.9-8.5,16.6c-2.9,6.5-2.1,9.9,3.8,13.9c10.5,7.3,21.4,14,32.1,21.2
			c5.6,3.8,11.1,7.6,16.2,12c6,5.2,6.3,9,1.3,15.2c-13.2,16.3-29.5,28.7-48.5,37.4c-4.4,2-8.8,4-13.3,5.9c-6.9,3-13.7,3.3-20.4-0.9
			c-13-8.2-27-25.2-23-43.7c1.4-6.5,3.8-12.9,6.3-19.2c4-9.8,3-15.4-4.4-23.1c-18.1-19-36.2-38.2-54.2-57.4
			c-8.5-9.2-10.5-19.3-3.9-30c9.9-16.2,20.9-31.8,31.9-47.3c6.4-9,13.9-17.3,20.6-26.2c2.4-3.1,4.7-3.9,8.4-3.2
			c11.4,2.3,23,3.6,34.2,6.5c15.3,3.9,29.4,0.9,43.7-4.5c12.5-4.7,25.2-9.7,38.9-6.8c10.5,2.3,20.9,5.2,30.8,9.1
			c12.6,4.9,24.9,4.9,37.8,2.2c11.2-2.4,22.5-4.1,33.7-6.3c3.3-0.6,5.4,0.1,7.5,2.9C390,103.5,407,126,423.3,149
			c11.4,16,6.4,27.9-4.8,39.4C400.7,206.5,383.5,225,366.2,243.4z"/>
	</g>
</g>
<g id="Chrome">
</g>
</svg>
